<svg width="55" height="35" viewBox="0 0 55 35" fill="none" xmlns="http://www.w3.org/2000/svg">
<path d="M2.35909 9.85199L2.35908 9.85198L2.3577 9.85483C1.11566 12.4064 0.5 15.2721 0.5 18.442C0.5 21.6112 1.11547 24.4222 2.36205 26.8611L2.36201 26.8611L2.36504 26.8668C3.64811 29.2987 5.39975 31.1951 7.61997 32.5417L7.61994 32.5417L7.62578 32.5452C9.84645 33.8512 12.3449 34.5 15.1083 34.5C18.0704 34.5 20.7113 33.7704 23.0145 32.2999L23.0164 32.2987C25.3482 30.795 27.1567 28.7619 28.4391 26.2098L28.4405 26.2069C29.7222 23.6157 30.3579 20.7097 30.3579 17.4991C30.3579 14.368 29.742 11.577 28.4959 9.13893C27.2513 6.70401 25.5171 4.82409 23.2933 3.51546C21.0714 2.16858 18.5521 1.5 15.7496 1.5C12.7476 1.5 10.0676 2.24981 7.72584 3.75966C5.42896 5.22632 3.64019 7.26198 2.35909 9.85199ZM11.0742 5.25582L11.0748 5.25532C12.3115 4.1155 13.6892 3.56077 15.2249 3.56077C17.6852 3.56077 19.6967 4.66262 21.286 6.94162C22.8706 9.21397 23.7029 12.7642 23.7029 17.6759C23.7029 20.7816 23.3379 23.4586 22.6188 25.7156L22.6188 25.7156L22.6173 25.7207C21.9355 27.9415 20.9633 29.6033 19.7249 30.7447L19.7248 30.7446L19.7194 30.7498C18.5238 31.8851 17.1681 32.4392 15.633 32.4392C13.1728 32.4392 11.1612 31.3374 9.57196 29.0584C7.98768 26.7865 7.15498 23.2171 7.15498 18.2652C7.15498 15.1582 7.50089 12.5001 8.18158 10.2818C8.90349 8.01682 9.87663 6.35636 11.0742 5.25582ZM36.9978 33.6745L38.3908 33.6158C38.3918 33.6158 38.3929 33.6157 38.3939 33.6157C42.3587 33.4978 44.8758 33.4392 45.9548 33.4392C47.1094 33.4392 49.781 33.5173 53.9813 33.6746L54.5 33.694V33.175V31.9374V31.4374H54C51.9748 31.4374 50.665 31.1049 49.9455 30.5494C49.3017 29.9844 48.9033 28.8961 48.9033 27.105V2.1768V1.20207L48.1116 1.77069C46.6912 2.79089 45.0814 3.51105 43.2768 3.9291L43.2745 3.92964C41.4933 4.35105 39.1984 4.60445 36.3799 4.68251L35.8938 4.69598V5.18232V6.47882V6.97882H36.3938C38.2868 6.97882 39.6152 7.13708 40.4254 7.42197L40.4375 7.42623L40.4499 7.42987C41.2381 7.66227 41.7834 8.14696 42.1141 8.91579L42.1141 8.91582L42.1174 8.92329C42.4605 9.68638 42.6564 10.9721 42.6564 12.8435V27.105C42.6564 28.8227 42.1611 29.8837 41.3029 30.462L41.3029 30.4619L41.2957 30.467C40.4087 31.0877 38.9961 31.4374 36.9767 31.4374H36.4767V31.9374V33.175V33.6965L36.9978 33.6745Z" stroke="#419A9F"/>
</svg>
