<svg width="61" height="34" viewBox="0 0 61 34" fill="none" xmlns="http://www.w3.org/2000/svg">
<path d="M2.36055 8.85185L2.36054 8.85185L2.35915 8.85469C1.11614 11.4063 0.5 14.2721 0.5 17.442C0.5 20.6113 1.11596 23.4223 2.36351 25.8612L2.36347 25.8612L2.3665 25.867C3.65057 28.2989 5.40356 30.1952 7.6254 31.5418L7.62538 31.5418L7.63122 31.5453C9.85351 32.8513 12.3538 33.5 15.1192 33.5C18.0834 33.5 20.7262 32.7704 23.0311 31.3L23.033 31.2988C25.3665 29.7951 27.1764 27.7621 28.4598 25.2099L28.4612 25.2071C29.7439 22.6158 30.3801 19.7097 30.3801 16.4991C30.3801 13.3679 29.7637 10.5769 28.5166 8.13879C27.2711 5.70386 25.5356 3.82398 23.3102 2.51539C21.0866 1.16855 18.5654 0.5 15.761 0.5C12.7568 0.5 10.0749 1.24977 7.73137 2.75956C5.43279 4.22618 3.64264 6.26181 2.36055 8.85185ZM11.0816 4.25595L11.0821 4.25545C12.3198 3.11559 13.6987 2.56077 15.2359 2.56077C17.6983 2.56077 19.7115 3.66278 21.302 5.94177C22.8878 8.21409 23.7208 11.7643 23.7208 16.6759C23.7208 19.7816 23.3554 22.4586 22.6359 24.7155L22.6359 24.7155L22.6343 24.7206C21.952 26.9413 20.9791 28.6031 19.7397 29.7446L19.7396 29.7445L19.7342 29.7496C18.5376 30.885 17.1808 31.4392 15.6443 31.4392C13.1818 31.4392 11.1686 30.3372 9.57814 28.0582C7.99266 25.7864 7.15933 22.2171 7.15933 17.2652C7.15933 14.1583 7.50551 11.5002 8.1867 9.28197C8.90915 7.01698 9.88302 5.35652 11.0816 4.25595ZM48.9252 16.2773C47.8936 18.3613 46.6537 20.2296 45.2065 21.8841C43.7412 23.5199 41.9051 25.3747 39.696 27.4495L39.696 27.4495L39.6919 27.4534C38.0967 28.9861 36.9603 30.1138 36.2892 30.8316L36.1544 30.9758V31.1731V32.175V32.675H36.6544H50.3068C52.7743 32.675 54.7273 32.6995 56.168 32.7483C57.6285 32.7978 58.516 32.8715 58.8881 32.9569L59.5644 33.1122L59.4977 32.4215C59.3446 30.8366 59.2666 28.2447 59.2666 24.6317V24.1317H58.7666H57.7748H57.3405L57.2797 24.5617C57.1664 25.3631 57.0203 25.9346 56.8561 26.3034C56.7349 26.5425 56.492 26.7624 56.0404 26.9273C55.6086 27.0592 54.8964 27.1372 53.8658 27.1372H43.0343C43.4774 26.5926 43.9555 26.0741 44.4685 25.5818L44.4687 25.5819L44.4777 25.5728C45.2483 24.7944 46.428 23.6612 48.0203 22.1705C49.9679 20.3999 51.5333 18.8786 52.7125 17.6083C53.9462 16.3215 54.9826 14.9126 55.8202 13.3821C56.713 11.7827 57.1663 10.1285 57.1663 8.42542C57.1663 5.94685 56.3417 3.96822 54.6526 2.56064C52.9801 1.16692 50.714 0.5 47.9147 0.5C44.9171 0.5 42.4122 1.2274 40.4392 2.72093C38.5064 4.14519 37.0154 5.95759 35.9697 8.15134L35.7694 8.57136L36.174 8.80121L37.1075 9.3316L37.5491 9.5825L37.793 9.13705C39.7603 5.545 42.2246 3.85728 45.1725 3.85728C47.0285 3.85728 48.3319 4.36143 49.1798 5.2863C50.0351 6.2194 50.5069 7.66718 50.5069 9.72192C50.5069 12.0395 49.9811 14.2202 48.9285 16.2707L48.9284 16.2707L48.9252 16.2773Z" stroke="#2A9CEE"/>
</svg>
