<svg width="57" height="40" viewBox="0 0 57 40" fill="none" xmlns="http://www.w3.org/2000/svg">
  <path d="M7.55985 2.6434C5.31752 4.03525 3.5696 5.96816 2.31736 8.42913L2.31735 8.42913L2.31591 8.432C1.10175 10.8566 0.5 13.5798 0.5 16.5912C0.5 19.6019 1.10158 22.2734 2.32043 24.5915L2.32039 24.5915L2.32354 24.5973C3.57775 26.9081 5.28938 28.7088 7.45678 29.9866L7.45676 29.9866L7.46256 29.99C9.63002 31.2291 12.0676 31.8441 14.7627 31.8441C17.6515 31.8441 20.2281 31.1525 22.4764 29.7572L22.4783 29.756C24.7545 28.3291 26.5217 26.3988 27.7752 23.9737L27.7767 23.9709C29.0296 21.5086 29.6509 18.7472 29.6509 15.6971C29.6509 12.7224 29.0489 10.0698 27.8305 7.7526C26.6138 5.43862 24.919 3.65353 22.7481 2.41171C20.5793 1.13377 18.1214 0.5 15.3882 0.5C12.4605 0.5 9.84574 1.21076 7.55985 2.6434ZM10.8305 4.11112L10.831 4.11064C12.0345 3.03237 13.3773 2.50588 14.8764 2.50588C17.2781 2.50588 19.2371 3.55155 20.7828 5.70616C22.3231 7.85339 23.1345 11.2111 23.1345 15.8647C23.1345 18.8067 22.7787 21.341 22.0788 23.4766L22.0788 23.4766L22.0771 23.4818C21.4135 25.5829 20.4678 27.1541 19.263 28.2335L19.263 28.2334L19.2575 28.2385C18.0942 29.3123 16.7731 29.8382 15.2745 29.8382C12.8728 29.8382 10.9138 28.7926 9.36814 26.638C7.82811 24.4912 7.01644 21.1154 7.01644 16.4235C7.01644 13.4803 7.35353 10.9639 8.01609 8.86489C8.71888 6.72153 9.66568 5.15163 10.8305 4.11112ZM34.9579 39.5C38.3541 39.5 41.6911 38.8932 44.9665 37.682C48.2849 36.5062 51.0248 34.8305 53.1704 32.6461C55.374 30.4414 56.5 27.916 56.5 25.0853C56.5 22.254 55.4081 20.0286 53.2184 18.4746C51.5871 17.317 49.6989 16.5843 47.5644 16.2672C49.168 15.4875 50.582 14.4846 51.803 13.2575C53.5507 11.5392 54.4527 9.57218 54.4527 7.37059C54.4527 5.27625 53.6015 3.58192 51.9216 2.33282C50.2983 1.09756 48.232 0.5 45.7633 0.5C43.3082 0.5 41.1561 1.10444 39.3284 2.33117C37.5033 3.55621 36.033 5.38062 34.9039 7.7718L34.6887 8.22757L35.1462 8.43912L36.113 8.88618L36.5422 9.08465L36.7642 8.66718C37.6044 7.08789 38.6307 5.93028 39.8327 5.16605L39.8328 5.16614L39.8412 5.16052C41.0458 4.35981 42.3897 3.95883 43.8866 3.95883C45.3531 3.95883 46.4297 4.34373 47.1839 5.05257C47.9184 5.74295 48.3343 6.85193 48.3343 8.48824C48.3343 9.89422 47.9953 11.2494 47.3106 12.5596C46.6559 13.8125 45.6621 14.9657 44.3123 16.0149C44.0558 15.9857 43.7667 15.9567 43.4451 15.9278C43.0639 15.8539 42.7333 15.8118 42.4648 15.8118C41.9715 15.8118 41.5173 15.9227 41.1226 16.1651L41.1096 16.1731L41.097 16.1819C40.693 16.4655 40.4862 16.8819 40.4862 17.3735C40.4862 17.7264 40.6023 18.0701 40.9017 18.3091C41.1797 18.531 41.5396 18.6 41.8961 18.6C42.3616 18.6 42.919 18.4655 43.5476 18.2339L43.555 18.2311L43.5623 18.2282C44.0727 18.0217 44.4422 17.8682 44.6573 17.7719C46.2749 17.9356 47.5621 18.6618 48.5494 19.9664L48.5493 19.9664L48.5532 19.9714C49.5703 21.281 50.0973 22.9725 50.0973 25.0853C50.0973 27.6308 49.3883 29.7924 47.9847 31.5958L47.9819 31.5996C46.5596 33.4631 44.698 34.8826 42.3845 35.8568L42.3845 35.8568L42.3785 35.8594C40.0507 36.876 37.5739 37.4215 34.9441 37.4943L34.4579 37.5078V37.9941V39V39.5H34.9579Z" stroke="#419A9F"/>
</svg>
